<?xml version="1.0" encoding="utf-8"?>
<!-- Generator: Adobe Illustrator 16.0.0, SVG Export Plug-In . SVG Version: 6.00 Build 0)  -->
<!DOCTYPE svg PUBLIC "-//W3C//DTD SVG 1.1//EN" "http://www.w3.org/Graphics/SVG/1.1/DTD/svg11.dtd">
<svg version="1.1" id="Layer_1" xmlns="http://www.w3.org/2000/svg" xmlns:xlink="http://www.w3.org/1999/xlink" x="0px" y="0px"
	 width="16px" height="16px" viewBox="0 0 16 16" enable-background="new 0 0 16 16" xml:space="preserve">
<path fill-rule="evenodd" clip-rule="evenodd" fill="#777777" d="M16,8c0-0.553-0.447-1-1-1H2V1c0-0.552-0.447-1-1-1S0,0.448,0,1v14
	c0,0.553,0.447,1,1,1s1-0.447,1-1V9h12v5.875C14,15.497,14.447,16,15,16s1-0.503,1-1.125v-6.75c0-0.023-0.011-0.043-0.012-0.066
	C15.989,8.038,16,8.021,16,8z"/>
<path fill-rule="evenodd" clip-rule="evenodd" fill="#777777" d="M16,3c0,0.552-0.447,1-1,1l0,0c-0.553,0-1-0.448-1-1V1
	c0-0.552,0.447-1,1-1l0,0c0.553,0,1,0.448,1,1V3z"/>
</svg>
