<?xml version="1.0" encoding="utf-8"?>
<!-- Generator: Adobe Illustrator 16.0.0, SVG Export Plug-In . SVG Version: 6.00 Build 0)  -->
<!DOCTYPE svg PUBLIC "-//W3C//DTD SVG 1.1//EN" "http://www.w3.org/Graphics/SVG/1.1/DTD/svg11.dtd">
<svg version="1.1" id="Layer_1" xmlns="http://www.w3.org/2000/svg" xmlns:xlink="http://www.w3.org/1999/xlink" x="0px" y="0px"
	 width="50px" height="50px" viewBox="0 0 50 50" enable-background="new 0 0 50 50" xml:space="preserve">
<g>
	<path fill="#FFFFFF" d="M34.65,13c0,1.381-1.108,2.5-2.477,2.5h-29.7C1.108,15.5,0,14.381,0,13l0,0c0-1.381,1.108-2.5,2.475-2.5
		h29.7C33.542,10.5,34.65,11.619,34.65,13L34.65,13z"/>
	<path fill="#FFFFFF" d="M34.65,25c0,1.381-1.108,2.5-2.477,2.5h-29.7C1.108,27.5,0,26.381,0,25l0,0c0-1.381,1.108-2.5,2.475-2.5
		h29.7C33.542,22.5,34.65,23.619,34.65,25L34.65,25z"/>
	<path fill="#FFFFFF" d="M34.65,37c0,1.381-1.108,2.5-2.477,2.5h-29.7C1.108,39.5,0,38.381,0,37l0,0c0-1.381,1.108-2.5,2.475-2.5
		h29.7C33.542,34.5,34.65,35.619,34.65,37L34.65,37z"/>
	<path fill="#FFFFFF" d="M49.5,13.208c0,1.266-1.016,2.292-2.27,2.292h-5.362c-1.253,0-2.368-1.026-2.368-2.292v-0.416
		c0-1.266,1.115-2.292,2.368-2.292h5.362c1.254,0,2.27,1.026,2.27,2.292V13.208z"/>
	<path fill="#FFFFFF" d="M49.5,25.208c0,1.267-1.016,2.292-2.27,2.292h-5.362c-1.253,0-2.368-1.025-2.368-2.292v-0.416
		c0-1.266,1.115-2.292,2.368-2.292h5.362c1.254,0,2.27,1.026,2.27,2.292V25.208z"/>
	<path fill="#FFFFFF" d="M49.5,37.208c0,1.267-1.016,2.292-2.27,2.292h-5.362c-1.253,0-2.368-1.025-2.368-2.292v-0.416
		c0-1.267,1.115-2.292,2.368-2.292h5.362c1.254,0,2.27,1.025,2.27,2.292V37.208z"/>
</g>
</svg>
