<?xml version="1.0" encoding="utf-8"?>
<!-- Generator: Adobe Illustrator 16.0.0, SVG Export Plug-In . SVG Version: 6.00 Build 0)  -->
<!DOCTYPE svg PUBLIC "-//W3C//DTD SVG 1.1//EN" "http://www.w3.org/Graphics/SVG/1.1/DTD/svg11.dtd">
<svg version="1.1" id="Layer_1" xmlns="http://www.w3.org/2000/svg" xmlns:xlink="http://www.w3.org/1999/xlink" x="0px" y="0px"
	 width="14px" height="16px" viewBox="0 0 14 16" enable-background="new 0 0 14 16" xml:space="preserve">
<path d="M12.737,1.066c-0.998-0.979-2.62-0.979-3.617,0L1.589,8.451c-1.722,1.691-1.722,4.427,0,6.115
	c1.724,1.691,4.515,1.691,6.236,0l6.222-6.1c0.447-0.438,1.174-0.438,1.622,0c0.444,0.437,0.444,1.151,0,1.59l-6.222,6.101
	c-2.62,2.568-6.861,2.568-9.48,0c-2.62-2.568-2.62-6.728,0-9.296l7.531-7.384c1.896-1.858,4.965-1.858,6.86,0
	c1.894,1.858,1.894,4.869,0,6.726l-7.203,7.063c-1.171,1.147-3.07,1.147-4.24,0c-1.171-1.15-1.171-3.012,0-4.159L8.81,3.328
	c0.446-0.438,1.175-0.438,1.621,0c0.445,0.436,0.445,1.152,0,1.589l-5.894,5.779c-0.274,0.269-0.274,0.71,0,0.979
	c0.274,0.27,0.724,0.27,0.999,0l7.203-7.063C13.737,3.635,13.737,2.044,12.737,1.066z"/>
</svg>
