<?xml version="1.0" encoding="utf-8"?>
<!-- Generator: Adobe Illustrator 16.0.0, SVG Export Plug-In . SVG Version: 6.00 Build 0)  -->
<!DOCTYPE svg PUBLIC "-//W3C//DTD SVG 1.1//EN" "http://www.w3.org/Graphics/SVG/1.1/DTD/svg11.dtd">
<svg version="1.1" id="Layer_1" xmlns="http://www.w3.org/2000/svg" xmlns:xlink="http://www.w3.org/1999/xlink" x="0px" y="0px"
	 width="100px" height="100px" viewBox="0 0 100 100" enable-background="new 0 0 100 100" xml:space="preserve">
<g>
	<polygon fill="#FFFFFF" points="33.536,5.188 43.456,5.188 43.456,9.335 37.685,9.335 37.685,13.484 43.456,13.484 43.456,17.632 
		33.536,17.632 	"/>
	<polygon fill="#FFFFFF" points="45.44,5.188 55.358,5.188 55.358,8.794 49.588,8.794 49.588,9.516 55.358,9.516 55.358,17.813 
		45.44,17.813 45.44,14.025 51.211,14.025 51.211,13.304 45.44,13.304 	"/>
	<polygon fill="#FFFFFF" points="57.343,5.188 67.263,5.188 67.263,8.794 61.491,8.794 61.491,9.516 67.263,9.516 67.263,17.813 
		57.343,17.813 57.343,14.025 63.114,14.025 63.114,13.304 57.343,13.304 	"/>
	<path fill="#FFFFFF" d="M18.141,23.335l5.954,66.776l26.716,7.416l26.79-7.426l5.96-66.766H18.141z M69.859,53.561l-0.2,2.199
		L67.735,77.32l-0.124,1.385l-16.761,4.646l0,0l-0.038,0.01l-16.776-4.656L32.89,65.846h3.789h4.432l0.583,6.531l9.121,2.463
		l0.008-0.002l9.134-2.465l0.951-10.621H50.851h-0.028H32.523l-0.733-8.191h19.032h0.028h10.767l0.745-8.385H50.851h-0.028H31.059
		l-0.744-8.19h20.508h0.028h20.488L69.859,53.561z"/>
</g>
</svg>
