<?xml version="1.0" encoding="utf-8"?>
<!-- Generator: Adobe Illustrator 16.0.0, SVG Export Plug-In . SVG Version: 6.00 Build 0)  -->
<!DOCTYPE svg PUBLIC "-//W3C//DTD SVG 1.1//EN" "http://www.w3.org/Graphics/SVG/1.1/DTD/svg11.dtd">
<svg version="1.1" id="Layer_1" xmlns="http://www.w3.org/2000/svg" xmlns:xlink="http://www.w3.org/1999/xlink" x="0px" y="0px"
	 width="100px" height="100px" viewBox="0 0 100 100" enable-background="new 0 0 100 100" xml:space="preserve">
<g>
	<polygon fill="#FFFFFF" points="23.384,6.752 27.431,6.752 27.431,10.75 31.133,10.75 31.133,6.752 35.18,6.752 35.18,18.859 
		31.133,18.859 31.133,14.805 27.431,14.805 27.431,18.859 23.384,18.859 	"/>
	<polygon fill="#FFFFFF" points="40.502,10.768 36.938,10.768 36.938,6.752 48.112,6.752 48.112,10.768 44.549,10.768 44.549,18.86 
		40.502,18.86 	"/>
	<polygon fill="#FFFFFF" points="49.887,6.752 54.105,6.752 56.701,11.006 59.295,6.752 63.516,6.752 63.516,18.859 59.486,18.859 
		59.486,12.858 56.701,17.164 56.633,17.164 53.846,12.858 53.846,18.859 49.887,18.859 	"/>
	<polygon fill="#FFFFFF" points="65.529,6.752 69.578,6.752 69.578,14.857 75.27,14.857 75.27,18.859 65.529,18.859 	"/>
	<path fill="#FFFFFF" d="M17.465,24.396l5.789,64.929l25.978,7.211l26.048-7.221l5.797-64.919H17.465z M69,39.806l-0.362,4.037
		l-0.159,1.79h-0.025H49.271h-0.028H38.004l0.729,8.153h10.51h0.028h16.337h2.146l-0.194,2.139L65.688,76.89l-0.12,1.346
		l-16.297,4.518l0,0l-0.037,0.01l-16.312-4.527l-1.115-12.504h3.684h4.309l0.568,6.352l8.868,2.395l0.007-0.002v-0.002l8.883-2.396
		l0.924-10.326h-9.778h-0.028H31.451l-1.959-21.945l-0.189-2.136h19.939h0.028h19.92L69,39.806z"/>
</g>
</svg>
