<?xml version="1.0" encoding="utf-8"?>
<!-- Generator: Adobe Illustrator 16.0.0, SVG Export Plug-In . SVG Version: 6.00 Build 0)  -->
<!DOCTYPE svg PUBLIC "-//W3C//DTD SVG 1.1//EN" "http://www.w3.org/Graphics/SVG/1.1/DTD/svg11.dtd">
<svg version="1.1" id="Layer_1" xmlns="http://www.w3.org/2000/svg" xmlns:xlink="http://www.w3.org/1999/xlink" x="0px" y="0px"
	 width="100px" height="100px" viewBox="0 0 100 100" enable-background="new 0 0 100 100" xml:space="preserve">
<g>
	<polygon fill="#FFFFFF" points="32.177,53.785 46.864,53.785 39.52,31.311 	"/>
	<path fill="#FFFFFF" d="M21.926,93.694c-9.256,0-16.786-7.531-16.786-16.787V23.095c0-9.257,7.53-16.789,16.786-16.789h56.146
		c9.258,0,16.787,7.531,16.787,16.789v53.812c0,9.256-7.529,16.787-16.787,16.787H21.926z M67.852,73.397h10.527V33.576H67.852
		V73.397z M52.658,73.397h11.945L46.78,20.278H33.999L16.371,73.397h9.958l4.009-12.175h18.236L52.658,73.397z M67.852,31.139
		h10.527v-10.86H67.852V31.139z"/>
</g>
</svg>
