<?xml version="1.0" encoding="utf-8"?>
<!-- Generator: Adobe Illustrator 16.0.0, SVG Export Plug-In . SVG Version: 6.00 Build 0)  -->
<!DOCTYPE svg PUBLIC "-//W3C//DTD SVG 1.1//EN" "http://www.w3.org/Graphics/SVG/1.1/DTD/svg11.dtd">
<svg version="1.1" id="Layer_1" xmlns="http://www.w3.org/2000/svg" xmlns:xlink="http://www.w3.org/1999/xlink" x="0px" y="0px"
	 width="14px" height="16px" viewBox="0 0 14 16" enable-background="new 0 0 14 16" xml:space="preserve">
<path fill="#FFFFFF" d="M7.002,4.514c-1.927,0-3.481,1.555-3.481,3.483c0,1.928,1.554,3.482,3.481,3.482
	c1.927,0,3.482-1.555,3.482-3.482C10.485,6.069,8.93,4.514,7.002,4.514z M7.002,10.261c-1.245,0-2.264-1.016-2.264-2.264
	c0-1.249,1.016-2.264,2.264-2.264c1.25,0,2.264,1.015,2.264,2.264C9.267,9.245,8.248,10.261,7.002,10.261z M11.439,4.372
	c0,0.452-0.363,0.812-0.813,0.812c-0.45,0-0.812-0.364-0.812-0.812s0.363-0.812,0.812-0.812C11.076,3.56,11.439,3.923,11.439,4.372z
	 M13.746,5.196c-0.052-1.089-0.299-2.052-1.098-2.847c-0.794-0.793-1.756-1.042-2.844-1.096c-1.121-0.064-4.482-0.064-5.603,0
	c-1.086,0.052-2.05,0.299-2.847,1.093C0.558,3.142,0.312,4.104,0.258,5.193c-0.063,1.121-0.063,4.484,0,5.604
	c0.052,1.089,0.3,2.052,1.097,2.847c0.797,0.794,1.758,1.044,2.845,1.096c1.121,0.064,4.483,0.064,5.604,0
	c1.088-0.051,2.051-0.299,2.845-1.096c0.794-0.795,1.043-1.761,1.098-2.847C13.81,9.677,13.81,6.318,13.746,5.196z M12.298,12.001
	c-0.236,0.593-0.694,1.052-1.291,1.291c-0.894,0.355-3.015,0.271-4.003,0.271S3.891,13.644,3,13.292
	c-0.593-0.236-1.051-0.694-1.29-1.291c-0.354-0.894-0.272-3.015-0.272-4.004c0-0.99-0.08-3.113,0.272-4.004
	C1.947,3.399,2.403,2.942,3,2.702C3.894,2.347,6.015,2.43,7.002,2.43c0.989,0,3.113-0.079,4.003,0.272
	c0.595,0.237,1.052,0.693,1.292,1.291c0.354,0.894,0.272,3.016,0.272,4.004S12.651,11.109,12.298,12.001z"/>
</svg>
