<?xml version="1.0" encoding="utf-8"?>
<!-- Generator: Adobe Illustrator 16.0.0, SVG Export Plug-In . SVG Version: 6.00 Build 0)  -->
<!DOCTYPE svg PUBLIC "-//W3C//DTD SVG 1.1//EN" "http://www.w3.org/Graphics/SVG/1.1/DTD/svg11.dtd">
<svg version="1.1" id="Layer_1" xmlns="http://www.w3.org/2000/svg" xmlns:xlink="http://www.w3.org/1999/xlink" x="0px" y="0px"
	 width="100px" height="100px" viewBox="0 0 100 100" enable-background="new 0 0 100 100" xml:space="preserve">
<g>
	<path fill="#FFFFFF" d="M50.085,23.412H17.544l6.099,66.161l26.442,7.496l26.434-7.496l6.107-66.161H50.085z M66.739,78.307
		l-16.654,4.729l-16.653-4.729l-1.176-12.672h8.226l0.543,6.34l9.061,2.611l8.924-2.572l0.913-10.479h-9.837h-18.14l-0.048,0.156
		l2.289-24.773h15.898h17.036l1.81,12.973h-8.299l-0.304-4.748H50.085h-9.217l-0.378,8.292h9.595h18.946L66.739,78.307z"/>
	<polygon fill="#FFFFFF" points="43.752,13.652 37.965,13.652 37.965,17.808 43.752,17.808 46.851,17.808 47.899,17.808 
		47.899,5.457 43.752,5.457 	"/>
	<path fill="#FFFFFF" d="M62.206,5.519H52.111v4.326c1.35,1.35,2.055,1.997,4.009,3.949c-1.143,0-4.009,0.005-4.009,0.005v3.945
		h10.095v-3.946l-4.032-3.953h4.032V5.519z"/>
</g>
</svg>
