<?xml version="1.0" encoding="utf-8"?>
<!-- Generator: Adobe Illustrator 16.0.0, SVG Export Plug-In . SVG Version: 6.00 Build 0)  -->
<!DOCTYPE svg PUBLIC "-//W3C//DTD SVG 1.1//EN" "http://www.w3.org/Graphics/SVG/1.1/DTD/svg11.dtd">
<svg version="1.1" id="Layer_1" xmlns="http://www.w3.org/2000/svg" xmlns:xlink="http://www.w3.org/1999/xlink" x="0px" y="0px"
	 width="100px" height="100px" viewBox="0 0 100 100" enable-background="new 0 0 100 100" xml:space="preserve">
<g>
	<path fill="#FFFFFF" d="M53.582,16.398l-1.035,1.424c-1.386,2.038-1.516,4.568-0.557,6.819c1.014,2.389,3.084,4.268,5.507,5.155
		c0.101,0.038,0.202,0.071,0.302,0.106l0.136,0.043c0.144,0.043,0.284,0.095,0.432,0.123c6.697,1.292,8.513-3.433,8.997-4.131
		c-1.592,2.292-4.268,2.837-7.548,2.041c-0.258-0.062-0.542-0.152-0.789-0.24c-0.321-0.115-0.637-0.247-0.942-0.395
		c-0.584-0.279-1.139-0.623-1.653-1.011C53.495,24.104,51.668,19.859,53.582,16.398 M45.986,18.057l-1.918,2.707
		c-2.349,3.379-2.22,7.905-0.388,11.481c0.308,0.6,0.651,1.177,1.036,1.732c0.352,0.504,0.749,1.107,1.215,1.511
		c0.17,0.187,0.345,0.369,0.523,0.549l0.143,0.135c0.175,0.17,0.352,0.336,0.536,0.5l0.018,0.018l0.008,0.007
		c0.202,0.177,0.414,0.348,0.628,0.518l0.142,0.111c0.215,0.165,0.436,0.328,0.66,0.48l0.02,0.019
		c0.098,0.068,0.201,0.132,0.301,0.197l0.143,0.093c0.16,0.103,0.322,0.201,0.486,0.296l0.068,0.043
		c0.143,0.08,0.286,0.161,0.432,0.24l0.153,0.079c0.102,0.052,0.2,0.104,0.303,0.155l0.042,0.024c0.208,0.103,0.418,0.197,0.63,0.29
		l0.142,0.055c0.17,0.072,0.338,0.144,0.512,0.209c0.074,0.028,0.148,0.054,0.222,0.081c0.157,0.059,0.316,0.113,0.476,0.167
		c0.071,0.022,0.145,0.045,0.215,0.067c0.227,0.071,0.451,0.159,0.686,0.197c12.127,2.01,14.928-7.325,14.928-7.325
		c-2.524,3.636-7.413,5.368-12.629,4.013c-0.231-0.061-0.463-0.125-0.689-0.197l-0.203-0.067c-0.162-0.054-0.322-0.11-0.482-0.167
		c-0.072-0.027-0.143-0.053-0.216-0.08c-0.173-0.066-0.348-0.137-0.517-0.209l-0.143-0.055c-0.213-0.094-0.422-0.194-0.629-0.296
		c-0.107-0.053-0.215-0.107-0.32-0.161l-0.179-0.092c-0.136-0.074-0.274-0.15-0.407-0.227l-0.093-0.057
		c-0.164-0.097-0.327-0.193-0.487-0.295l-0.147-0.099c-0.105-0.069-0.212-0.139-0.315-0.21c-0.225-0.153-0.439-0.317-0.653-0.48
		l-0.147-0.111c-2.283-1.801-4.096-4.267-4.957-7.06C44.228,23.946,44.423,20.696,45.986,18.057 M36.522,21.479l-2.535,3.219
		c-3.248,4.667-2.845,10.743-0.363,15.703c0.059,0.118,0.124,0.235,0.185,0.353c0.039,0.074,0.071,0.149,0.111,0.221l0.074,0.129
		c0.042,0.079,0.086,0.152,0.129,0.229c0.079,0.136,0.16,0.271,0.241,0.407c0.045,0.074,0.085,0.147,0.13,0.221
		c0.09,0.145,0.184,0.29,0.277,0.433l0.117,0.178c0.131,0.194,0.265,0.383,0.401,0.574l0.007,0.019l0.067,0.092
		c0.119,0.162,0.242,0.321,0.364,0.48l0.136,0.172c0.11,0.139,0.225,0.276,0.34,0.414l0.123,0.154
		c0.152,0.18,0.309,0.356,0.469,0.53l0.012,0.012l0.019,0.02c0.155,0.168,0.314,0.333,0.474,0.499l0.148,0.155
		c0.125,0.124,0.255,0.247,0.382,0.369l0.155,0.147c0.171,0.162,0.341,0.32,0.519,0.475l0.012,0.006l0.085,0.081
		c0.155,0.133,0.316,0.264,0.476,0.394l0.191,0.155c0.129,0.103,0.261,0.207,0.395,0.308l0.209,0.161
		c0.146,0.107,0.296,0.216,0.444,0.32l0.16,0.11l0.043,0.031c0.142,0.097,0.288,0.19,0.431,0.284l0.186,0.124
		c0.221,0.139,0.445,0.278,0.671,0.413l0.186,0.104c0.167,0.096,0.329,0.192,0.499,0.285c0.092,0.049,0.191,0.093,0.284,0.141
		c0.12,0.063,0.236,0.124,0.358,0.185l0.086,0.042l0.142,0.068c0.189,0.09,0.381,0.18,0.574,0.265l0.124,0.056
		c0.219,0.097,0.441,0.188,0.665,0.278l0.16,0.062c0.208,0.08,0.418,0.16,0.629,0.235l0.081,0.03
		c0.233,0.081,0.467,0.154,0.704,0.228l0.166,0.051c0.24,0.072,0.475,0.158,0.721,0.202c15.707,2.866,20.273-9.438,20.273-9.438
		c-3.831,4.992-10.633,6.311-17.079,4.845c-0.245-0.055-0.483-0.133-0.722-0.203l-0.179-0.056c-0.231-0.071-0.462-0.144-0.69-0.222
		l-0.094-0.038c-0.204-0.072-0.408-0.149-0.609-0.228l-0.173-0.067c-0.222-0.088-0.442-0.177-0.659-0.272l-0.135-0.055
		c-0.188-0.085-0.371-0.171-0.557-0.259l-0.159-0.081c-0.145-0.07-0.284-0.142-0.426-0.216c-0.097-0.049-0.195-0.102-0.291-0.153
		c-0.173-0.095-0.347-0.192-0.517-0.29l-0.172-0.093c-0.229-0.134-0.451-0.272-0.673-0.414l-0.178-0.124
		c-0.16-0.103-0.323-0.205-0.481-0.314l-0.148-0.111c-0.154-0.107-0.308-0.215-0.456-0.326l-0.197-0.147
		c-0.137-0.105-0.273-0.213-0.407-0.321l-0.185-0.148c-0.172-0.141-0.338-0.28-0.506-0.425l-0.055-0.043
		c-0.181-0.159-0.361-0.324-0.537-0.486l-0.148-0.148c-0.129-0.125-0.256-0.25-0.382-0.377l-0.154-0.148
		c-0.16-0.164-0.316-0.331-0.469-0.5l-0.024-0.024c-0.162-0.177-0.319-0.359-0.475-0.542l-0.123-0.148
		c-0.117-0.141-0.233-0.284-0.346-0.426l-0.124-0.154c-0.135-0.175-0.272-0.353-0.4-0.53C34.947,33.739,33.661,27.006,36.522,21.479
		"/>
	<path fill="#FFFFFF" d="M27.821,56.752c-6.521,0-9.354,4.695-10.436,9.799c-1.08,5.142,0.336,9.648,6.819,9.611l5.116-0.018
		l4.778-0.017c0.184-0.001,0.373-0.147,0.42-0.324l0.834-3.179c0.046-0.18-0.07-0.324-0.253-0.326l-0.797-0.002l-0.8-0.008
		c-0.156-0.001-0.244-0.101-0.225-0.234l0.021-0.076c0,0,1.804-4.384,2.215-6.918C36.073,61.67,34.378,56.752,27.821,56.752
		 M95.124,58.629l-1.052,0.007c-0.186,0.001-0.486,0.003-0.671,0.003h-2.785c-0.185,0-0.419,0.125-0.522,0.276l-6.162,9.023
		c-0.104,0.153-0.223,0.132-0.264-0.048l-0.451-1.988c-0.041-0.18-0.227-0.324-0.411-0.324h-3.961c-0.185,0-0.292,0.143-0.243,0.32
		l1.775,6.217c0.049,0.178,0.055,0.469,0.01,0.646l-0.776,3.008c-0.046,0.181,0.069,0.325,0.253,0.325h3.914
		c0.184,0,0.374-0.145,0.42-0.325l0.773-3.008c0.045-0.177,0.172-0.443,0.283-0.591l10.004-13.274
		C95.368,58.748,95.309,58.627,95.124,58.629 M61.134,60.629c-6.445,0-7.972,3.912-8.827,7.859
		c-0.857,4.025-0.785,7.787,5.885,7.787h0.238h0.063h0.431h0.079h0.201h0.049c0.263-0.001,0.53-0.004,0.799-0.005h0.014
		c1.762-0.006,3.525-0.021,4.242-0.026c0.184-0.003,0.361-0.149,0.398-0.328l0.271-1.319l0.056-0.257l0.32-1.575
		c0.037-0.18-0.086-0.328-0.27-0.328h-5.995c-2.385,0-3.095-0.632-2.833-2.495h9.586h0.007c0.153-0.003,0.293-0.109,0.349-0.25
		l0.024-0.082h-0.004C67.64,64.242,67.23,60.629,61.134,60.629 M27.28,60.755c3.599-0.104,4.305,2.572,3.391,5.646l-0.092,0.321
		v0.004l-0.721,2.563l-0.725,2.563c-0.051,0.178-0.243,0.326-0.428,0.326h-3.828c-2.906,0-3.617-2.273-2.909-5.627
		c0.708-3.428,2.097-5.561,4.957-5.775C27.047,60.766,27.165,60.758,27.28,60.755 M12.687,60.81c-0.184,0-0.37,0.148-0.41,0.327
		l-0.346,1.525l-0.345,1.523c-0.041,0.18,0.075,0.328,0.26,0.328h3.67c0.185,0,0.368-0.147,0.407-0.328l0.334-1.523l0.335-1.525
		c0.039-0.18-0.079-0.327-0.264-0.327H12.687z M39.26,60.85c-0.185,0-0.366,0.148-0.403,0.328l-0.731,3.474l-0.735,3.472v0.004
		l-0.068,0.325c-0.844,3.849-0.618,7.52,3.964,7.634c0.075,0.003,0.133,0,0.133,0h7.191c0.185,0,0.365-0.147,0.402-0.327l1.553-7.29
		l1.551-7.291c0.039-0.18-0.082-0.328-0.266-0.328h-3.315c-0.185,0-0.368,0.148-0.407,0.328l-1.176,5.445l-1.179,5.449
		c-0.039,0.178-0.219,0.326-0.403,0.326h-2.349c-2.322,0-2.054-1.607-1.579-3.807l0.013-0.065l0.052-0.28l0.01-0.051l0.106-0.564
		l0.113-0.604c0.035-0.183,0.089-0.451,0.124-0.618l0.536-2.615l0.533-2.615c0.037-0.18-0.082-0.328-0.267-0.328H39.26z
		 M70.666,60.887c-0.184,0-0.369,0.15-0.406,0.328l-0.134,0.641l-0.16,0.758l-0.044,0.212l-1.381,6.467l-1.313,6.143
		c-0.039,0.181-0.051,0.401-0.028,0.491s0.374,0.16,0.558,0.16h2.769c0.185,0,0.415-0.031,0.516-0.071s0.251-0.403,0.288-0.584
		L71.821,73l0.493-2.434v-0.004l0.064-0.322l0.598-2.797l0.526-2.467c0.038-0.181,0.22-0.325,0.403-0.325l8.705-0.005
		c0.184,0,0.299-0.146,0.256-0.328l-0.15-0.627l-0.15-0.644l-0.078-0.328c-0.299-1.158-1.172-1.825-3.072-1.825l-2.96-0.003
		l-2.724-0.005H70.666z M60.28,64.278c2.065,0,2.468,1.007,2.327,2.143c-0.025,0.198-0.207,0.346-0.39,0.346h-5.021
		c-0.173,0-0.265-0.118-0.239-0.263l0.004-0.012l0.004-0.017c0,0,0.006-0.034,0.02-0.085C57.465,65.115,58.443,64.278,60.28,64.278
		 M11.599,65.553c-0.183,0-0.366,0.148-0.406,0.328l-0.516,2.283l-0.517,2.283c-0.041,0.18-0.105,0.477-0.143,0.656l-0.496,2.331
		l-0.496,2.331c-0.039,0.18-0.119,0.471-0.178,0.646c0,0-0.685,2.04-1.838,2.017c-0.049-0.001-0.096,0.002-0.144,0
		c-0.557-0.011-0.998-0.021-0.998-0.021c-0.184-0.003-0.367,0.143-0.41,0.321l-0.382,1.6l-0.379,1.6
		c-0.042,0.178,0.074,0.328,0.257,0.332c0.653,0.008,2.116,0.023,3.003,0.023c2.879,0,4.4-1.598,5.373-6.189l1.138-5.271l1.07-4.941
		c0.039-0.18-0.083-0.328-0.268-0.328H11.599z"/>
</g>
</svg>
