<?xml version="1.0" encoding="utf-8"?>
<!-- Generator: Adobe Illustrator 16.0.0, SVG Export Plug-In . SVG Version: 6.00 Build 0)  -->
<!DOCTYPE svg PUBLIC "-//W3C//DTD SVG 1.1//EN" "http://www.w3.org/Graphics/SVG/1.1/DTD/svg11.dtd">
<svg version="1.1" id="Layer_1" xmlns="http://www.w3.org/2000/svg" xmlns:xlink="http://www.w3.org/1999/xlink" x="0px" y="0px"
	 width="50px" height="50px" viewBox="0 0 50 50" enable-background="new 0 0 50 50" xml:space="preserve">
<path fill="#FFFFFF" d="M50,25c0-1.722-1.395-3.115-3.113-3.115H6.395V3.198c0-1.719-1.393-3.115-3.114-3.115
	c-1.723,0-3.115,1.396-3.115,3.115v43.606c0,1.723,1.392,3.113,3.115,3.113c1.722,0,3.114-1.393,3.114-3.113V28.115H43.77v18.299
	c0,1.936,1.395,3.504,3.115,3.504s3.114-1.568,3.114-3.504V25.389c0-0.073-0.034-0.134-0.037-0.207C49.966,25.119,50,25.067,50,25z"
	/>
<path fill="#FFFFFF" d="M49.917,9.427c0,1.719-1.394,3.115-3.114,3.115l0,0c-1.722,0-3.115-1.396-3.115-3.115V3.198
	c0-1.719,1.395-3.115,3.115-3.115l0,0c1.721,0,3.114,1.396,3.114,3.115V9.427z"/>
</svg>
