<?xml version="1.0" encoding="utf-8"?>
<!-- Generator: Adobe Illustrator 16.0.0, SVG Export Plug-In . SVG Version: 6.00 Build 0)  -->
<!DOCTYPE svg PUBLIC "-//W3C//DTD SVG 1.1//EN" "http://www.w3.org/Graphics/SVG/1.1/DTD/svg11.dtd">
<svg version="1.1" id="Layer_1" xmlns="http://www.w3.org/2000/svg" xmlns:xlink="http://www.w3.org/1999/xlink" x="0px" y="0px"
	 width="16px" height="16px" viewBox="0 0 16 16" enable-background="new 0 0 16 16" xml:space="preserve">
<path fill="#FFFFFF" d="M2.063,3.25c-0.272,0-0.495,0.238-0.495,0.528v0.728l5.335,4.672c0.64,0.56,1.558,0.56,2.2,0l5.329-4.672
	V3.778c0-0.292-0.223-0.528-0.494-0.528H2.063z M1.568,6.554v5.667c0,0.291,0.223,0.529,0.495,0.529h11.875
	c0.271,0,0.494-0.238,0.494-0.529V6.554l-4.391,3.848c-1.189,1.037-2.898,1.037-4.083,0L1.568,6.554z M0.084,3.778
	c0-1.165,0.887-2.111,1.979-2.111h11.875c1.091,0,1.979,0.947,1.979,2.111v8.444c0,1.164-0.888,2.11-1.979,2.11H2.063
	c-1.092,0-1.979-0.946-1.979-2.112V3.778z"/>
</svg>
