<?xml version="1.0" encoding="utf-8"?>
<!-- Generator: Adobe Illustrator 16.0.0, SVG Export Plug-In . SVG Version: 6.00 Build 0)  -->
<!DOCTYPE svg PUBLIC "-//W3C//DTD SVG 1.1//EN" "http://www.w3.org/Graphics/SVG/1.1/DTD/svg11.dtd">
<svg version="1.1" id="Layer_1" xmlns="http://www.w3.org/2000/svg" xmlns:xlink="http://www.w3.org/1999/xlink" x="0px" y="0px"
	 width="12px" height="16px" viewBox="0 0 12 16" enable-background="new 0 0 12 16" xml:space="preserve">
<path d="M-1.5,0.5C-1.5-0.879-0.277-2,1.227-2h9.545C12.277-2,13.5-0.879,13.5,0.5v15c0,1.379-1.223,2.5-2.728,2.5H1.227
	C-0.277,18-1.5,16.879-1.5,15.5V0.5z M7.363,15.5c0-0.691-0.609-1.25-1.363-1.25c-0.752,0-1.364,0.559-1.364,1.25
	S5.248,16.75,6,16.75C6.754,16.75,7.363,16.191,7.363,15.5z M10.772,0.5H1.227V13h9.545V0.5z"/>
</svg>
