<?xml version="1.0" encoding="utf-8"?>
<!-- Generator: Adobe Illustrator 16.0.0, SVG Export Plug-In . SVG Version: 6.00 Build 0)  -->
<!DOCTYPE svg PUBLIC "-//W3C//DTD SVG 1.1//EN" "http://www.w3.org/Graphics/SVG/1.1/DTD/svg11.dtd">
<svg version="1.1" id="Layer_1" xmlns="http://www.w3.org/2000/svg" xmlns:xlink="http://www.w3.org/1999/xlink" x="0px" y="0px"
	 width="100px" height="100px" viewBox="0 0 100 100" enable-background="new 0 0 100 100" xml:space="preserve">
<g>
	<path fill="#FFFFFF" d="M35.8,31.062c-2.215,0-3.742,0.221-4.512,0.442v14.342c0.94,0.201,2.076,0.271,3.653,0.271
		c5.836,0,9.464-2.952,9.464-7.937C44.381,33.718,41.296,31.062,35.8,31.062"/>
	<path fill="#FFFFFF" d="M88.693,5.918H11.3c-2.978,0-5.395,2.417-5.395,5.401v77.363c0,2.984,2.417,5.4,5.395,5.4h77.394
		c2.984,0,5.401-2.416,5.401-5.4V11.319C94.095,8.334,91.678,5.918,88.693,5.918 M50.785,49.447c-3.723,3.521-9.288,5.1-15.774,5.1
		c-1.426,0-2.732-0.051-3.741-0.197v17.377H20.398V23.787c3.376-0.568,8.133-1.01,14.834-1.01c6.783,0,11.609,1.281,14.84,3.893
		c3.13,2.441,5.199,6.486,5.199,11.244C55.271,42.665,53.694,46.709,50.785,49.447 M67.203,72.439c-4.612,0-8.727-1.01-11.389-2.461
		l1.949-7.842c2.02,1.211,6.184,2.662,9.439,2.662c3.3,0,4.682-1.154,4.682-2.959c0-1.799-1.086-2.656-5.174-4.039
		c-7.3-2.441-10.108-6.41-10.032-10.6c0-6.555,5.622-11.533,14.342-11.533c4.12,0,7.792,0.934,9.956,2.019l-1.943,7.571
		c-1.603-0.863-4.612-2.025-7.641-2.025c-2.662,0-4.164,1.086-4.164,2.884c0,1.653,1.356,2.519,5.666,4.045
		c6.707,2.29,9.515,5.69,9.59,10.872C82.484,67.613,77.279,72.439,67.203,72.439"/>
</g>
</svg>
