<?xml version="1.0" encoding="utf-8"?>
<!-- Generator: Adobe Illustrator 16.0.0, SVG Export Plug-In . SVG Version: 6.00 Build 0)  -->
<!DOCTYPE svg PUBLIC "-//W3C//DTD SVG 1.1//EN" "http://www.w3.org/Graphics/SVG/1.1/DTD/svg11.dtd">
<svg version="1.1" id="Layer_1" xmlns="http://www.w3.org/2000/svg" xmlns:xlink="http://www.w3.org/1999/xlink" x="0px" y="0px"
	 width="14px" height="16px" viewBox="0 0 14 16" enable-background="new 0 0 14 16" xml:space="preserve">
<path d="M8.537-0.46C8.537-1.313,7.851-2,7-2C6.147-2,5.46-1.313,5.46-0.46v6.922H-1.46C-2.313,6.46-3,7.148-3,8
	c0,0.851,0.687,1.538,1.539,1.538h6.922v6.924c0,0.85,0.687,1.538,1.539,1.538c0.851,0,1.538-0.688,1.538-1.538V9.538h6.924
	C16.312,9.538,17,8.851,17,8c0-0.852-0.688-1.54-1.537-1.54H8.537V-0.46z"/>
</svg>
