<?xml version="1.0" encoding="utf-8"?>
<!-- Generator: Adobe Illustrator 16.0.0, SVG Export Plug-In . SVG Version: 6.00 Build 0)  -->
<!DOCTYPE svg PUBLIC "-//W3C//DTD SVG 1.1//EN" "http://www.w3.org/Graphics/SVG/1.1/DTD/svg11.dtd">
<svg version="1.1" id="Layer_1" xmlns="http://www.w3.org/2000/svg" xmlns:xlink="http://www.w3.org/1999/xlink" x="0px" y="0px"
	 width="50px" height="50px" viewBox="0 0 50 50" enable-background="new 0 0 50 50" xml:space="preserve">
<path fill="#FFFFFF" d="M34.225,21.934c-0.469,0.469-1.273,0.422-1.799-0.102l-0.222-0.222c-0.524-0.525-0.571-1.33-0.103-1.799
	l0.828-0.827c0.467-0.468,1.272-0.422,1.797,0.103l0.223,0.221c0.525,0.525,0.57,1.331,0.103,1.799L34.225,21.934z"/>
<path fill="#FFFFFF" d="M29.505,24.315l-0.287-0.287c-0.506-0.506-1.327-0.507-1.834,0l-2.601,2.601l-7.544-7.544
	c-0.524-0.524-1.374-0.524-1.898,0l-0.223,0.223c-0.524,0.524-0.524,1.374,0,1.898l8.374,8.374c0.027,0.033,0.039,0.072,0.07,0.104
	l0.287,0.287c0.506,0.508,1.328,0.508,1.834,0l3.821-3.822C30.012,25.643,30.012,24.821,29.505,24.315z"/>
<path fill="#FFFFFF" d="M34.225,29.936c-0.469,0.469-1.273,0.422-1.799-0.104l-0.222-0.223c-0.524-0.524-0.571-1.329-0.103-1.799
	l0.828-0.828c0.467-0.467,1.272-0.42,1.797,0.104l0.223,0.222c0.525,0.524,0.57,1.33,0.103,1.799L34.225,29.936z"/>
<path fill="#FFFFFF" d="M29.505,32.314l-0.287-0.287c-0.506-0.506-1.327-0.506-1.834,0l-2.601,2.602l-7.544-7.544
	c-0.523-0.524-1.373-0.524-1.897,0l-0.224,0.224c-0.523,0.523-0.524,1.373,0,1.897l8.374,8.374c0.027,0.033,0.038,0.072,0.069,0.104
	l0.287,0.287c0.506,0.508,1.328,0.508,1.833,0l3.822-3.822C30.012,33.643,30.012,32.82,29.505,32.314z"/>
</svg>
