<?xml version="1.0" encoding="utf-8"?>
<!-- Generator: Adobe Illustrator 16.0.0, SVG Export Plug-In . SVG Version: 6.00 Build 0)  -->
<!DOCTYPE svg PUBLIC "-//W3C//DTD SVG 1.1//EN" "http://www.w3.org/Graphics/SVG/1.1/DTD/svg11.dtd">
<svg version="1.1" id="Layer_1" xmlns="http://www.w3.org/2000/svg" xmlns:xlink="http://www.w3.org/1999/xlink" x="0px" y="0px"
	 width="20px" height="16px" viewBox="0 0 20 16" enable-background="new 0 0 20 16" xml:space="preserve">
<path fill="#FFFFFF" d="M2.756,9.659c0.306-0.571,0.212-1.275-0.234-1.744C1.856,7.216,1.5,6.375,1.5,5.5c0-1.984,1.994-4,5-4
	s5,2.016,5,4s-1.994,4-5,4c-0.409,0-0.806-0.041-1.181-0.111c-0.325-0.063-0.663-0.02-0.96,0.131C4.231,9.584,4.1,9.646,3.966,9.706
	c-0.5,0.226-1.028,0.422-1.56,0.563c0.087-0.145,0.169-0.285,0.247-0.426c0.034-0.06,0.068-0.121,0.1-0.185H2.756z M0,5.5
	c0,1.306,0.538,2.503,1.435,3.447C1.406,9,1.375,9.057,1.347,9.105c-0.322,0.576-0.697,1.142-1.144,1.629
	c-0.206,0.219-0.259,0.537-0.144,0.81C0.181,11.822,0.45,12,0.75,12c1.344,0,2.703-0.416,3.834-0.928
	c0.15-0.069,0.3-0.141,0.444-0.213C5.5,10.953,5.994,11,6.5,11c3.591,0,6.5-2.463,6.5-5.5C13,2.462,10.091,0,6.5,0S0,2.462,0,5.5z
	 M13.5,15c0.506,0,0.997-0.05,1.473-0.141c0.144,0.072,0.293,0.144,0.443,0.213C16.547,15.584,17.906,16,19.25,16
	c0.3,0,0.568-0.178,0.688-0.453c0.121-0.275,0.063-0.594-0.144-0.811c-0.444-0.486-0.819-1.053-1.144-1.627
	c-0.028-0.053-0.061-0.106-0.088-0.159C19.463,12.003,20,10.807,20,9.5c0-2.95-2.747-5.359-6.193-5.494
	C13.936,4.481,14,4.981,14,5.5v0.019c2.725,0.209,4.5,2.109,4.5,3.981c0,0.875-0.355,1.716-1.021,2.412
	c-0.446,0.469-0.541,1.176-0.233,1.744c0.034,0.063,0.067,0.125,0.101,0.185c0.077,0.142,0.161,0.281,0.246,0.425
	c-0.531-0.141-1.06-0.334-1.56-0.563c-0.136-0.061-0.267-0.122-0.394-0.188c-0.298-0.15-0.636-0.193-0.961-0.132
	c-0.378,0.074-0.771,0.112-1.181,0.112c-1.929,0-3.438-0.828-4.275-1.947c-0.5,0.169-1.025,0.294-1.563,0.369
	C8.719,13.744,10.938,15,13.5,15z"/>
</svg>
