<?xml version="1.0" encoding="utf-8"?>
<!-- Generator: Adobe Illustrator 16.0.0, SVG Export Plug-In . SVG Version: 6.00 Build 0)  -->
<!DOCTYPE svg PUBLIC "-//W3C//DTD SVG 1.1//EN" "http://www.w3.org/Graphics/SVG/1.1/DTD/svg11.dtd">
<svg version="1.1" id="Layer_1" xmlns="http://www.w3.org/2000/svg" xmlns:xlink="http://www.w3.org/1999/xlink" x="0px" y="0px"
	 width="12px" height="16px" viewBox="0 0 12 16" enable-background="new 0 0 12 16" xml:space="preserve">
<path fill="#FFFFFF" d="M11.723,13.723c-0.377,0.378-0.989,0.378-1.366,0L0.277,3.644c-0.377-0.378-0.377-0.989,0-1.367l0,0
	c0.378-0.377,0.99-0.377,1.367,0l10.079,10.08C12.101,12.733,12.101,13.346,11.723,13.723L11.723,13.723z"/>
<path fill="#FFFFFF" d="M6.256,7.743c0.377,0.378,0.377,0.99,0,1.367l-4.612,4.612c-0.377,0.378-0.989,0.378-1.367,0l0,0
	c-0.377-0.377-0.377-0.989,0-1.366L4.89,7.743C5.267,7.366,5.879,7.366,6.256,7.743L6.256,7.743z"/>
<path fill="#FFFFFF" d="M11.686,2.3c0.377,0.377,0.377,0.989,0,1.367l-2.05,2.05c-0.378,0.377-0.989,0.377-1.367,0l0,0
	c-0.377-0.377-0.377-0.989,0-1.367l2.05-2.05C10.696,1.922,11.309,1.922,11.686,2.3L11.686,2.3z"/>
</svg>
